<svg width="35" height="36" viewBox="0 0 35 36" fill="none" xmlns="http://www.w3.org/2000/svg">
<path fill-rule="evenodd" clip-rule="evenodd" d="M2 18C2 26.5604 8.93959 33.5 17.5 33.5C26.0604 33.5 33 26.5604 33 18C33 9.43959 26.0604 2.5 17.5 2.5C8.93959 2.5 2 9.43959 2 18ZM17.5 0.5C7.83502 0.5 0 8.33502 0 18C0 27.665 7.83502 35.5 17.5 35.5C27.165 35.5 35 27.665 35 18C35 8.33502 27.165 0.5 17.5 0.5Z" fill="white"/>
<path d="M15.5945 29.5V18.5H12V14.8333H15.5945V12.8643C15.5945 9.13625 17.3746 7.5 20.412 7.5C21.8668 7.5 22.6361 7.61 23 7.66042V11.1667H20.9287C19.6392 11.1667 19.189 11.8606 19.189 13.2668V14.8333H22.9677L22.4545 18.5H19.189V29.5H15.5945Z" fill="white"/>
</svg>
