<svg width="84" height="84" viewBox="0 0 84 84" fill="none" xmlns="http://www.w3.org/2000/svg">
<rect width="84" height="84" rx="42" fill="#00E1FF" fill-opacity="0.2"/>
<path fill-rule="evenodd" clip-rule="evenodd" d="M20 42C20 29.85 29.85 20 42 20C54.15 20 64 29.85 64 42C64 54.15 54.15 64 42 64C29.85 64 20 54.15 20 42ZM47.6 36.8C47.2817 36.3757 46.8079 36.0951 46.2828 36.0201C45.7577 35.9451 45.2243 36.0817 44.8 36.4C44.3757 36.7183 44.0951 37.1921 44.0201 37.7172C43.9451 38.2423 44.0817 38.7757 44.4 39.2L46.5 42L44.4 44.8C44.0817 45.2243 43.9451 45.7577 44.0201 46.2828C44.0951 46.8079 44.3757 47.2817 44.8 47.6C45.2243 47.9183 45.7577 48.0549 46.2828 47.9799C46.8079 47.9049 47.2817 47.6243 47.6 47.2L49 45.334L50.4 47.2C50.7183 47.6243 51.1921 47.9049 51.7172 47.9799C51.9772 48.017 52.2419 48.0026 52.4964 47.9374C52.7508 47.8722 52.9899 47.7576 53.2 47.6C53.4101 47.4424 53.5871 47.245 53.7209 47.019C53.8548 46.793 53.9428 46.5428 53.9799 46.2828C54.017 46.0228 54.0026 45.7581 53.9374 45.5036C53.8722 45.2492 53.7576 45.0101 53.6 44.8L51.5 42L53.6 39.2C53.9183 38.7757 54.0549 38.2423 53.9799 37.7172C53.9049 37.1921 53.6243 36.7183 53.2 36.4C52.9899 36.2424 52.7508 36.1278 52.4964 36.0626C52.2419 35.9974 51.9772 35.983 51.7172 36.0201C51.1921 36.0951 50.7183 36.3757 50.4 36.8L49 38.666L47.6 36.8ZM34 38C34 37.4696 33.7893 36.9609 33.4142 36.5858C33.0391 36.2107 32.5304 36 32 36C31.4696 36 30.9609 36.2107 30.5858 36.5858C30.2107 36.9609 30 37.4696 30 38V42C30 42.986 30.28 44.422 31.176 45.668C32.148 47.02 33.748 48 36 48C38.252 48 39.852 47.016 40.824 45.668C41.72 44.422 42 42.988 42 42V38C42 37.4696 41.7893 36.9609 41.4142 36.5858C41.0391 36.2107 40.5304 36 40 36C39.4696 36 38.9609 36.2107 38.5858 36.5858C38.2107 36.9609 38 37.4696 38 38V42C38 42.346 37.88 42.912 37.576 43.332C37.348 43.65 36.948 44 36 44C35.052 44 34.652 43.65 34.424 43.332C34.1578 42.9379 34.0106 42.4755 34 42V38Z" fill="#00E1FF"/>
</svg>
