<svg width="85" height="84" viewBox="0 0 85 84" fill="none" xmlns="http://www.w3.org/2000/svg">
<rect x="0.5" width="84" height="84" rx="42" fill="#00E1FF" fill-opacity="0.2"/>
<path d="M40.6758 20.125C43.2799 20.125 45.4938 21.0368 47.3174 22.8604C49.1411 24.684 50.0522 26.8972 50.0508 29.5C50.0508 31.2361 49.6424 32.7722 48.8258 34.1083C48.0091 35.4444 47.0286 36.5125 45.8841 37.3125V29.5C45.8841 28.0417 45.3806 26.809 44.3737 25.8021C43.3668 24.7951 42.1341 24.2917 40.6758 24.2917C39.2174 24.2917 37.9848 24.7951 36.9779 25.8021C35.9709 26.809 35.4674 28.0417 35.4674 29.5V37.3125C34.2869 36.5139 33.2973 35.4285 32.4987 34.0563C31.7001 32.684 31.3008 31.1653 31.3008 29.5C31.3008 26.8958 32.2126 24.6819 34.0362 22.8583C35.8598 21.0347 38.073 20.1236 40.6758 20.125ZM39.5299 63.875C38.9397 63.875 38.4098 63.7708 37.9404 63.5625C37.4709 63.3542 37.0286 63.0417 36.6133 62.625L26.6133 52.6771L28.332 50.9063C28.5751 50.6632 28.8619 50.4896 29.1924 50.3854C29.523 50.2813 29.8786 50.2639 30.2591 50.3333L37.5508 51.8958V29.5C37.5508 28.6319 37.8549 27.8938 38.4633 27.2854C39.0716 26.6771 39.8091 26.3736 40.6758 26.375C41.5438 26.375 42.282 26.6792 42.8904 27.2875C43.4987 27.8958 43.8022 28.6333 43.8008 29.5V42H45.0508C45.3633 42 45.6848 42.0347 46.0154 42.1042C46.3459 42.1736 46.6494 42.2778 46.9258 42.4167L56.0924 46.6875C56.9258 47.0694 57.5424 47.6597 57.9424 48.4583C58.3424 49.2569 58.4723 50.1076 58.332 51.0104L57.0299 60.2812C56.8911 61.2882 56.4223 62.1389 55.6237 62.8333C54.8251 63.5278 53.9223 63.875 52.9154 63.875H39.5299Z" fill="#00E1FF"/>
</svg>
