<svg width="60" height="60" viewBox="0 0 60 60" fill="none" xmlns="http://www.w3.org/2000/svg">
<path d="M24.2607 38.0018C23.9667 38.5768 24.3899 39.2518 25.2252 39.2629V39.2606C25.2664 39.2312 25.3197 39.1976 25.3804 39.1594C25.5396 39.0591 25.7492 38.9271 25.9202 38.7566C28.4485 36.2505 30.9697 33.7355 33.4901 31.2211L34.3449 30.3684C34.4559 30.2578 34.5716 30.1426 34.6588 30.0133C34.9194 29.6226 34.8837 29.234 34.5585 28.9054C34.2155 28.5591 33.8101 28.5302 33.4047 28.8144C33.3008 28.8873 33.2102 28.9783 33.12 29.069L33.0772 29.1119C32.1396 30.0473 31.2017 30.9823 30.2638 31.9174L30.2611 31.9201C28.3858 33.7898 26.5105 35.6594 24.6371 37.5311C24.4946 37.6732 24.3498 37.8264 24.2607 38.0018Z" fill="#8EFF24"/>
<path fill-rule="evenodd" clip-rule="evenodd" d="M25.9796 33.052C27.4208 33.0409 28.6148 31.8242 28.6036 30.3811V30.3789C28.5925 28.9091 27.3718 27.7168 25.895 27.7346C24.4515 27.7523 23.2642 28.9624 23.2709 30.4077C23.2754 31.8709 24.4983 33.0654 25.9796 33.052ZM25.4008 29.6912C25.1876 29.8545 25.0463 30.1107 25.0463 30.3944C25.0463 30.8695 25.445 31.2714 25.9217 31.2803C26.0841 31.2833 26.2388 31.2397 26.3727 31.1621C26.6333 31.0129 26.8161 30.7356 26.8264 30.4213V30.419C26.8398 29.9461 26.4545 29.5309 25.9778 29.5065C25.7642 29.496 25.5618 29.567 25.4008 29.6912Z" fill="#8EFF24"/>
<path fill-rule="evenodd" clip-rule="evenodd" d="M35.721 37.4792C35.7299 38.9223 34.5359 40.139 33.097 40.1501C31.6157 40.1634 30.395 38.969 30.3883 37.5036C30.3816 36.056 31.5689 34.8504 33.0145 34.8327C34.4914 34.8149 35.7121 36.0094 35.7232 37.4792H35.721ZM33.9438 37.4672C33.9452 37.5183 33.9419 37.5687 33.9344 37.6179C33.87 38.0467 33.4811 38.3884 33.0346 38.3784C32.5579 38.3673 32.1636 37.961 32.1659 37.4858C32.166 37.4499 32.1685 37.4143 32.1731 37.3793C32.2278 36.9507 32.6045 36.6056 33.0461 36.6036C33.5251 36.5991 33.9305 36.9899 33.9438 37.4672Z" fill="#8EFF24"/>
<path fill-rule="evenodd" clip-rule="evenodd" d="M56.6297 17.1448C56.7037 17.2048 56.778 17.265 56.7995 17.3399C56.8193 17.4081 56.8435 17.4801 56.8682 17.5535C56.9577 17.8196 57.0534 18.104 56.9643 18.2902C56.8351 18.5544 56.4231 18.8208 56.1223 18.8363C55.2912 18.8832 54.4576 18.876 53.6003 18.8686C53.279 18.8658 52.9543 18.863 52.6251 18.863V55.6967C52.6251 56.7513 52.3779 57 51.3243 57C48.6 57 45.8735 57 43.1493 56.9978C42.2404 56.9978 41.9531 56.7136 41.9531 55.8144V42.5041C40.0575 45.1151 37.7186 46.9312 34.8317 48.0524V55.6634C34.8317 56.7602 34.5956 57 33.5085 57C30.7843 57 28.0578 57 25.3335 56.9978C24.4581 56.9978 24.1596 56.7047 24.1596 55.8477L24.1583 54.6377C24.1558 52.6209 24.1533 50.6039 24.1663 48.5853C24.1686 48.2123 24.0817 48.0125 23.703 47.8571C21.148 46.8047 19.0386 45.1661 17.3746 42.9637C17.3384 42.9162 17.3022 42.8693 17.2557 42.809C17.2022 42.7395 17.1349 42.6523 17.0383 42.5263V55.8166C17.0383 56.7136 16.7465 56.9978 15.8376 56.9978C13.0755 57 10.3134 57 7.55348 56.9978C6.65133 56.9978 6.36621 56.7114 6.36621 55.8055C6.36473 47.7761 6.36522 39.7467 6.36572 31.7173V31.7115C6.36596 27.6958 6.36621 23.6802 6.36621 19.6645V18.863H5.36828C5.09083 18.863 4.81313 18.8627 4.53535 18.8625C3.97922 18.862 3.42225 18.8615 2.86678 18.863C2.45468 18.863 2.08492 18.7009 2.01141 18.3035C1.96966 18.0677 2.05015 17.8062 2.1288 17.5507C2.15087 17.479 2.1728 17.4077 2.19184 17.3377C2.20864 17.2753 2.27151 17.2243 2.33522 17.1727C2.36443 17.1491 2.39384 17.1252 2.41904 17.1001L10.7945 8.75202C11.5207 8.02822 11.8838 8.026 12.6055 8.74758C14.4673 10.6018 16.3281 12.457 18.1886 14.3119C19.1194 15.24 20.0502 16.168 20.981 17.0957C21.0058 17.1204 21.0347 17.1439 21.0635 17.1673C21.1277 17.2194 21.1913 17.2711 21.2082 17.3355C21.2273 17.4036 21.2492 17.4729 21.2712 17.5427C21.352 17.7986 21.4351 18.0619 21.3931 18.299C21.3218 18.6965 20.9542 18.863 20.5422 18.863C19.78 18.8615 19.0188 18.862 18.2481 18.8625H18.244C17.8561 18.8627 17.4657 18.863 17.0717 18.863V25.2795C17.1984 25.126 17.3189 24.9783 17.436 24.8347C17.6543 24.5669 17.8609 24.3136 18.0741 24.065C19.5999 22.3021 21.4376 20.9589 23.5983 20.0774C24.0505 19.8909 24.1797 19.6667 24.173 19.1916C24.1501 17.7555 24.1536 16.3182 24.1571 14.8814C24.1584 14.3592 24.1596 13.8366 24.1596 13.3146V12.653C23.8605 12.653 23.5645 12.6523 23.271 12.6517C22.4719 12.65 21.6898 12.6483 20.9097 12.6596C20.4107 12.6663 19.9741 12.5953 19.7714 12.0713C19.5754 11.5695 19.865 11.2365 20.1924 10.9101C22.2972 8.81555 24.4007 6.71852 26.5039 4.6218L28.608 2.52426C29.3074 1.8271 29.6839 1.82488 30.3811 2.51982C33.1743 5.30162 35.9652 8.08565 38.7561 10.8697C38.7801 10.8935 38.8051 10.9176 38.8297 10.9413C38.8852 10.9948 38.9411 11.0486 38.9905 11.1055C39.2511 11.403 39.4404 11.7782 39.1776 12.1046C38.9749 12.3577 38.6096 12.613 38.3044 12.6286C37.4925 12.6734 36.6771 12.6662 35.8289 12.6588C35.5019 12.6559 35.1701 12.653 34.8317 12.653V13.2036C34.8317 13.7451 34.8323 14.2868 34.833 14.8285C34.8347 16.319 34.8364 17.8105 34.825 19.3004C34.8206 19.68 34.9163 19.871 35.2928 20.0264C37.7921 21.0566 39.8726 22.644 41.5143 24.7932C41.5912 24.8929 41.6691 24.9915 41.7665 25.1146L41.9108 25.2972V18.863H40.6166C40.3762 18.863 40.1357 18.8627 39.895 18.8625C39.4131 18.862 38.9304 18.8615 38.4492 18.863C38.0371 18.863 37.6673 18.6965 37.5983 18.299C37.5563 18.0619 37.6394 17.7987 37.7201 17.5428C37.7422 17.4729 37.7641 17.4036 37.7832 17.3355C37.8003 17.2702 37.8655 17.2179 37.9306 17.1658C37.9585 17.1435 37.9863 17.1212 38.0104 17.0979C39.4023 15.7094 40.7949 14.3214 42.1874 12.9334L42.1981 12.9227C43.5942 11.5312 44.9903 10.1397 46.3858 8.74758C47.1098 8.02822 47.4706 8.02822 48.199 8.75202L48.2128 8.76571C50.9859 11.5298 53.7613 14.2961 56.5344 17.0624C56.5629 17.0907 56.5962 17.1177 56.6297 17.1448ZM16.1495 33.8518C16.1317 41.2385 22.0881 47.2354 29.4589 47.2465C36.8008 47.2576 42.8218 41.314 42.8419 34.0339C42.8619 26.6294 36.8899 20.6436 29.4723 20.637C22.1816 20.6281 16.1673 26.5938 16.1495 33.8518Z" fill="#8EFF24"/>
</svg>
