<svg width="84" height="84" viewBox="0 0 84 84" fill="none" xmlns="http://www.w3.org/2000/svg">
<rect width="84" height="84" rx="42" fill="#00E1FF" fill-opacity="0.2"/>
<path d="M32.0114 47.2084C31.4816 47.2084 30.9735 47.4278 30.5988 47.8185C30.2242 48.2092 30.0137 48.7392 30.0137 49.2917V53.0042C27.4388 49.9675 26.0177 46.0536 26.0183 42C26.0174 41.3873 26.0521 40.7751 26.1222 40.1667C26.1603 39.8919 26.1453 39.6119 26.0782 39.3432C26.0111 39.0745 25.8931 38.8225 25.7312 38.602C25.5694 38.3815 25.3669 38.197 25.1357 38.0593C24.9044 37.9216 24.6491 37.8335 24.3848 37.8002C24.1205 37.7669 23.8524 37.789 23.5964 37.8652C23.3404 37.9415 23.1015 38.0704 22.8939 38.2442C22.6864 38.4181 22.5142 38.6336 22.3876 38.8778C22.261 39.1221 22.1825 39.3903 22.1567 39.6667C22.0665 40.4409 22.0218 41.2201 22.0228 42C22.0256 46.9712 23.7389 51.7764 26.8513 55.5417H24.0206C23.4907 55.5417 22.9826 55.7612 22.608 56.1519C22.2333 56.5426 22.0228 57.0725 22.0228 57.625C22.0228 58.1776 22.2333 58.7075 22.608 59.0982C22.9826 59.4889 23.4907 59.7084 24.0206 59.7084H32.0114C32.3239 59.7041 32.6308 59.6221 32.9067 59.4692C33.1826 59.3163 33.4195 59.0969 33.5976 58.8292C33.6196 58.7979 33.6496 58.7729 33.6715 58.7396C33.6855 58.7188 33.6855 58.6938 33.6975 58.6729C33.7927 58.5054 33.864 58.3243 33.9093 58.1354C33.9392 58.0292 33.9606 57.9204 33.9732 57.8104C33.9792 57.7479 34.0091 57.6917 34.0091 57.625V49.2917C34.0091 48.7392 33.7987 48.2092 33.424 47.8185C33.0494 47.4278 32.5413 47.2084 32.0114 47.2084ZM35.008 29.5H31.4461C34.3587 26.8146 38.1124 25.3327 42 25.3334C42.5876 25.332 43.1748 25.3689 43.758 25.4438C44.2844 25.5101 44.8145 25.3556 45.2316 25.0143C45.6488 24.673 45.9189 24.1729 45.9825 23.624C46.046 23.075 45.8979 22.5222 45.5707 22.0872C45.2434 21.6521 44.7638 21.3705 44.2375 21.3042C43.495 21.2111 42.7478 21.1651 42 21.1667C37.2331 21.1695 32.6254 22.9563 29.0149 26.2021V23.25C29.0149 22.6975 28.8044 22.1676 28.4297 21.7769C28.0551 21.3862 27.547 21.1667 27.0171 21.1667C26.4873 21.1667 25.9792 21.3862 25.6045 21.7769C25.2299 22.1676 25.0194 22.6975 25.0194 23.25V31.5834C25.0318 31.7212 25.0579 31.8574 25.0973 31.9896C25.1455 32.2467 25.2412 32.4915 25.379 32.7104L25.403 32.7459C25.5348 32.9457 25.6999 33.1193 25.8904 33.2584C25.9124 33.275 25.9244 33.3 25.9464 33.3167C25.9743 33.3375 26.0063 33.3438 26.0363 33.3604C26.15 33.4316 26.2705 33.4903 26.3958 33.5354C26.5641 33.5966 26.7395 33.6338 26.9173 33.6459C26.9532 33.6459 26.9812 33.6667 27.0171 33.6667H35.008C35.5378 33.6667 36.046 33.4472 36.4206 33.0565C36.7953 32.6658 37.0057 32.1359 37.0057 31.5834C37.0057 31.0308 36.7953 30.5009 36.4206 30.1102C36.046 29.7195 35.5378 29.5 35.008 29.5ZM58.9007 52.0084C58.8524 51.752 58.7567 51.5079 58.619 51.2896L58.597 51.2542C58.4647 51.0541 58.2989 50.8805 58.1076 50.7417C58.0856 50.725 58.0756 50.7 58.0517 50.6834C58.0317 50.6688 58.0057 50.6688 57.9837 50.6542C57.7303 50.5068 57.4524 50.4107 57.1647 50.3709C57.1008 50.3646 57.0468 50.3334 56.9829 50.3334H48.992C48.4622 50.3334 47.9541 50.5528 47.5794 50.9435C47.2048 51.3342 46.9943 51.8642 46.9943 52.4167C46.9943 52.9692 47.2048 53.4991 47.5794 53.8898C47.9541 54.2805 48.4622 54.5 48.992 54.5H52.552C49.64 57.1851 45.887 58.667 42 58.6667C41.4123 58.6673 40.8252 58.6298 40.242 58.5542C39.7156 58.4879 39.1856 58.6424 38.7684 58.9836C38.3512 59.3249 38.0811 59.825 38.0176 60.374C37.954 60.9229 38.1021 61.4757 38.4294 61.9108C38.7566 62.3458 39.2362 62.6275 39.7626 62.6938C40.505 62.7869 41.2522 62.8335 42 62.8334C46.7669 62.8305 51.3746 61.0437 54.9852 57.7979V60.75C54.9852 61.3026 55.1956 61.8325 55.5703 62.2232C55.9449 62.6139 56.4531 62.8334 56.9829 62.8334C57.5127 62.8334 58.0208 62.6139 58.3955 62.2232C58.7701 61.8325 58.9806 61.3026 58.9806 60.75V52.4167C58.9676 52.2787 58.9409 52.1405 58.9007 52.0084ZM59.9795 28.4584C60.5093 28.4584 61.0174 28.2389 61.3921 27.8482C61.7667 27.4575 61.9772 26.9276 61.9772 26.375C61.9772 25.8225 61.7667 25.2926 61.3921 24.9019C61.0174 24.5112 60.5093 24.2917 59.9795 24.2917H51.9886C51.8584 24.3049 51.7299 24.3322 51.605 24.3729L51.5911 24.375C51.3489 24.4261 51.1183 24.5251 50.9118 24.6667L50.8719 24.6938C50.681 24.8314 50.5152 25.0036 50.3824 25.2021C50.3665 25.2229 50.3425 25.2354 50.3265 25.2584C50.3125 25.2792 50.3125 25.3063 50.2985 25.3292C50.1561 25.5953 50.0639 25.8873 50.0268 26.1896C50.0208 26.2521 49.9909 26.3084 49.9909 26.375V34.7084C49.9909 35.2609 50.2014 35.7908 50.576 36.1815C50.9506 36.5722 51.4588 36.7917 51.9886 36.7917C52.5184 36.7917 53.0266 36.5722 53.4012 36.1815C53.7758 35.7908 53.9863 35.2609 53.9863 34.7084V30.9938C56.5612 34.0313 57.9822 37.9458 57.9818 42C57.982 42.6128 57.9466 43.225 57.8759 43.8334C57.8127 44.3816 57.9606 44.9336 58.2872 45.3683C58.6137 45.803 59.0923 46.0849 59.6179 46.1521C59.6988 46.162 59.7802 46.1669 59.8616 46.1667C60.3493 46.1658 60.8198 45.9789 61.1845 45.6412C61.5492 45.3034 61.7828 44.8383 61.8413 44.3334C61.9322 43.5592 61.9776 42.78 61.9772 42C61.9745 37.0288 60.2611 32.2237 57.1487 28.4584H59.9795Z" fill="#00E1FF"/>
</svg>
