<svg width="74" height="74" viewBox="0 0 74 74" fill="none" xmlns="http://www.w3.org/2000/svg">
<g clip-path="url(#clip0_90_1485)">
<path d="M38.1215 6.1839C38.1204 5.83362 38.1192 5.48325 38.1192 5.1326C38.1192 4.81454 38.1202 4.49624 38.1212 4.17784C38.1236 3.3814 38.126 2.58433 38.1133 1.78872C38.0984 0.960603 37.649 0.480866 36.9614 0.50371C36.3036 0.523699 35.8899 0.983447 35.8839 1.78301C35.872 4.03606 35.872 6.28911 35.8839 8.54216C35.8899 9.36457 36.3363 9.87286 36.9971 9.87286C37.6579 9.87572 38.1043 9.36457 38.1163 8.54787C38.1266 7.75914 38.124 6.97178 38.1215 6.1839Z" fill="white"/>
<path fill-rule="evenodd" clip-rule="evenodd" d="M34.4791 12.5057C45.2954 11.2693 55.4867 17.8799 58.2757 28.0344L58.2697 28.0258C60.4306 35.8986 58.5257 42.9005 52.7752 48.9115C52.5526 49.1441 52.3238 49.3727 52.0956 49.6007L51.9567 49.7396C49.9506 51.7499 48.8195 54.0487 49.0666 56.9299C49.1681 58.1306 49.1441 59.3409 49.1202 60.5502C49.1098 61.0782 49.0993 61.6061 49.0993 62.1328C49.1023 63.8205 48.4683 65.2739 47.1081 66.3219C46.4235 66.8502 46.2509 67.3928 46.2538 68.1752C46.2658 70.5682 44.6615 72.5956 42.2773 73.2581C41.7624 73.4009 41.2088 73.4752 40.673 73.4809C38.4199 73.5037 36.1667 73.498 33.9136 73.4894C30.7556 73.478 28.2971 71.1593 28.2971 68.1352C28.2971 67.3814 28.1542 66.8559 27.4726 66.3419C26.1004 65.3082 25.4694 63.8576 25.4516 62.1671C25.4448 61.4013 25.4286 60.6355 25.4124 59.8697C25.3859 58.6166 25.3594 57.3635 25.3742 56.1104C25.395 54.3142 24.8027 52.7437 23.6241 51.3901C23.0949 50.7806 22.5363 50.1938 21.9777 49.6071C21.2672 48.8606 20.5564 48.1139 19.9065 47.3209C15.7157 42.2066 14.2691 36.4041 15.3555 29.999C15.4478 29.4621 16.1324 26.8636 16.9836 25.056C17.0461 24.839 17.1027 24.6819 17.1473 24.6077C17.3048 24.3428 17.4604 24.0761 17.616 23.8091C18.2693 22.6886 18.925 21.5639 19.7398 20.5585C23.4842 15.941 28.425 13.1996 34.4791 12.5057ZM47.4742 26.4295C46.3878 25.6471 44.9412 25.827 44.084 26.8721L44.0811 26.8693C43.5619 27.5026 42.0336 29.4295 40.6223 31.2089L40.6196 31.2123C39.4994 32.6247 38.453 33.944 38.0449 34.448C37.6591 34.9247 37.2715 35.4024 36.8776 35.8877L36.8598 35.9096L36.8574 35.9125C36.5619 36.2766 36.2628 36.6451 35.9584 37.0209C35.8741 36.9333 35.7938 36.8506 35.7164 36.7709C35.5616 36.6113 35.4187 36.4641 35.2798 36.3155C35.0349 36.0558 34.791 35.7947 34.5471 35.5334C34.0883 35.0421 33.6288 34.55 33.1605 34.0653C32.2408 33.1144 30.7794 33.0373 29.7763 33.8683C28.8209 34.6621 28.6364 36.1156 29.4698 37.0294C31.1008 38.8142 32.7617 40.5761 34.4523 42.3122C35.3095 43.1918 36.9317 43.206 37.7472 42.298C38.584 41.3679 39.3621 40.3907 40.1406 39.4129C40.4281 39.0518 40.7159 38.6904 41.0064 38.3316C41.0291 38.3031 41.1477 38.158 41.3387 37.9242L41.3424 37.9197C42.6339 36.3389 47.1995 30.7504 47.9296 29.6649C48.7213 28.6112 48.5189 27.1862 47.4742 26.4295ZM33.601 71.3363C36.0477 71.4049 38.5032 71.4077 40.9499 71.3363V71.3335C42.8726 71.2792 44.3847 69.4031 43.9263 67.7868H30.6008C30.5926 67.8176 30.5823 67.849 30.5719 67.8808C30.5486 67.9522 30.5246 68.0259 30.5204 68.101C30.4371 69.7229 31.8509 71.2878 33.601 71.3363ZM46.0253 59.9384C46.2876 59.9391 46.5502 59.9397 46.8134 59.9397V56.4017H27.7375V59.9369H38.6907C39.6075 59.9397 40.0688 60.2795 40.0926 60.9535C40.1165 61.6388 39.5867 62.0757 38.6907 62.0757C37.3554 62.0776 36.0188 62.077 34.6817 62.0763C34.013 62.076 33.3442 62.0757 32.6754 62.0757H27.7256C27.6571 63.9575 29.1513 65.5881 31.1128 65.6195C35.2202 65.6852 39.3307 65.6852 43.4411 65.6195C45.4383 65.5881 47.0575 63.7862 46.7718 62.0757C46.5203 62.0757 46.2682 62.0766 46.0155 62.0776C45.5085 62.0795 44.9993 62.0814 44.4888 62.0757C43.6048 62.0671 43.1256 61.6902 43.1167 61.0106C43.1078 60.311 43.5572 59.9454 44.4561 59.9397C44.9796 59.9359 45.5018 59.9372 46.0253 59.9384Z" fill="white"/>
<path d="M4.86956 37.0865C4.51247 37.0865 4.1551 37.0876 3.79762 37.0887H3.79635C2.99246 37.0911 2.18718 37.0935 1.38416 37.0836C0.491233 37.0722 0.00905112 36.6867 0.00012183 36.0214C-0.00880746 35.3532 0.473374 34.9534 1.35737 34.9505C3.70578 34.942 6.05418 34.942 8.40258 34.9505C9.2598 34.9534 9.78067 35.3874 9.75984 36.0299C9.74198 36.6439 9.23598 37.0665 8.4264 37.0779C7.59024 37.092 6.75259 37.0891 5.91452 37.0861C5.56526 37.0849 5.21592 37.0836 4.86659 37.0836L4.86956 37.0865Z" fill="white"/>
<path d="M70.1576 34.9461C69.8016 34.9469 69.4454 34.9477 69.089 34.9477C68.6428 34.9488 68.1962 34.9478 67.7495 34.9467H67.7481C67.0331 34.9451 66.3178 34.9435 65.6036 34.9505C64.7494 34.9591 64.2225 35.3817 64.2345 36.0214C64.2464 36.6325 64.7553 37.0722 65.559 37.0779C67.9342 37.0922 70.3064 37.0922 72.6786 37.0779C73.509 37.0751 73.9852 36.6667 74.0001 36.0299C74.015 35.3589 73.5328 34.9591 72.6488 34.9505C71.8176 34.9425 70.9879 34.9443 70.1576 34.9461Z" fill="white"/>
<path d="M18.195 55.2279C18.1136 55.3517 18.0442 55.4688 17.9792 55.5783C17.8494 55.7972 17.7376 55.9856 17.5849 56.136C15.9214 57.7576 14.2401 59.3621 12.5587 60.9666L12.5577 60.9676C11.9862 61.5102 11.3284 61.5616 10.8581 61.1275C10.367 60.6792 10.4176 60.0138 11.007 59.4456C11.6761 58.8002 12.3471 58.1566 13.0182 57.5131L13.0191 57.5122C14.0253 56.5472 15.0314 55.5822 16.0312 54.6111C16.4449 54.2113 16.936 54.0343 17.4301 54.317C17.6435 54.4406 17.7956 54.6622 17.9556 54.8952C18.0321 55.0066 18.1104 55.1207 18.198 55.2279H18.195Z" fill="white"/>
<path d="M18.1821 16.8216L18.1831 16.8204V16.8233L18.1821 16.8216Z" fill="white"/>
<path d="M17.9937 16.4775C18.0496 16.5846 18.1097 16.6998 18.1821 16.8216C18.1014 16.9194 18.0275 17.0236 17.9545 17.1265C17.791 17.3571 17.6321 17.5813 17.4122 17.7114C16.9479 17.9855 16.4657 17.8228 16.0758 17.4458C15.1934 16.5932 14.3065 15.7435 13.4194 14.8935L13.4183 14.8925L13.4173 14.8915C13.0632 14.5522 12.7091 14.213 12.3553 13.8735C12.2068 13.7311 12.0573 13.5895 11.9077 13.4478C11.5653 13.1236 11.2222 12.7986 10.8908 12.4628C10.4206 11.986 10.4027 11.3549 10.8164 10.9351C11.254 10.4896 11.9534 10.4811 12.4624 10.9637C14.2036 12.6142 15.9299 14.2733 17.6473 15.9466C17.7879 16.0833 17.8823 16.2642 17.9937 16.4775Z" fill="white"/>
<path d="M56.9809 17.9854C56.8685 17.8904 56.7437 17.8045 56.6233 17.7216C56.3674 17.5454 56.1317 17.3831 56.0791 17.1773C55.9868 16.8089 56.0999 16.2549 56.3529 15.9722C56.9105 15.3505 57.5258 14.775 58.1413 14.1994C58.3766 13.9793 58.612 13.7592 58.8442 13.5364C59.094 13.2968 59.343 13.0569 59.592 12.8171L59.5927 12.8164C60.2155 12.2166 60.8381 11.6169 61.4694 11.0235C62.0289 10.4952 62.7076 10.4638 63.1689 10.915C63.6303 11.3662 63.5856 11.9973 63.0201 12.5455C61.3503 14.1618 59.6746 15.7752 57.984 17.3715C57.8186 17.5264 57.6101 17.6388 57.3717 17.7675C57.2497 17.8333 57.1199 17.9033 56.9839 17.9854H56.9809Z" fill="white"/>
<path d="M63.3774 60.7512C63.45 60.6497 63.5227 60.5481 63.6005 60.4595V60.4566C63.5387 60.3322 63.4909 60.2173 63.4475 60.1133C63.3655 59.9166 63.2997 59.7587 63.1868 59.6485C61.4009 57.9094 59.6091 56.1761 57.7935 54.4656C57.347 54.0458 56.6535 54.0972 56.2606 54.517C55.838 54.9682 55.7874 55.505 56.219 55.9305C58.0108 57.6953 59.8234 59.4429 61.6807 61.1476C61.9129 61.3618 62.4992 61.4047 62.8296 61.2876C63.0502 61.2085 63.2137 60.98 63.3774 60.7512Z" fill="white"/>
</g>
<defs>
<clipPath id="clip0_90_1485">
<rect width="74.0005" height="72.994" fill="white" transform="translate(0 0.50293)"/>
</clipPath>
</defs>
</svg>
