<svg width="60" height="60" viewBox="0 0 60 60" fill="none" xmlns="http://www.w3.org/2000/svg">
<path d="M21.1197 14.9834H29.939V14.9811C30.8487 14.9811 31.7587 14.9817 32.6688 14.9823C34.7929 14.9838 36.9178 14.9853 39.0427 14.9787C40.2266 14.9764 40.986 14.2066 40.9906 13.005C41.0021 10.5643 41.0043 8.12116 40.9906 5.68042C40.986 4.51403 40.222 3.7466 39.0771 3.73018C38.8948 3.72774 38.7124 3.7242 38.53 3.72065C37.8331 3.7071 37.136 3.69355 36.4433 3.74191C35.6219 3.80058 35.1332 3.61987 34.6813 2.77265C33.6488 0.831795 31.9006 -0.0999104 29.7416 0.00804546C27.5368 0.116001 25.94 1.27535 24.9948 3.32417C24.8479 3.641 24.6827 3.74426 24.3546 3.73722C23.4119 3.71891 22.4674 3.72352 21.5242 3.72814C21.3794 3.72884 21.2346 3.72955 21.0899 3.73018C19.7202 3.73487 18.9998 4.46475 18.9975 5.85644C18.9929 8.17984 18.9952 10.5056 18.9975 12.829C18.9998 14.2582 19.7133 14.9834 21.1197 14.9834Z" fill="#8EFF24"/>
<path d="M20.8214 29.2476C20.8222 29.2484 20.823 29.2492 20.8237 29.25L20.8214 29.2476C20.8215 29.2476 20.8214 29.2476 20.8214 29.2476Z" fill="#8EFF24"/>
<path fill-rule="evenodd" clip-rule="evenodd" d="M45.9889 7.51097C45.5499 7.52032 45.1069 7.52975 44.6592 7.52975V7.53679C44.6592 8.09963 44.6607 8.65853 44.6622 9.21461C44.6656 10.4764 44.6689 11.7236 44.6546 12.9698C44.6156 16.2577 42.3006 18.7055 39.1001 18.7266C33.0294 18.7642 26.9587 18.7572 20.888 18.7266C18.2587 18.7149 16.2695 17.1214 15.5491 14.5258C15.3908 13.9531 15.3518 13.3312 15.3426 12.7328C15.3245 11.4885 15.3277 10.2431 15.3309 8.97899C15.3322 8.48347 15.3335 7.9851 15.3335 7.48281C14.928 7.48281 14.5297 7.48174 14.1359 7.48069C13.3622 7.47861 12.6065 7.47659 11.8507 7.48281C9.56102 7.50159 8.0032 9.08337 8.0032 11.4326C7.99861 26.3164 7.99861 41.2026 8.00549 56.0888C8.00779 58.4192 9.54726 59.994 11.8232 59.994C23.9463 60.0033 36.067 60.0057 48.1901 59.9822C48.7797 59.9822 49.4221 59.8438 49.9521 59.5833C51.4365 58.8534 51.9986 57.5391 51.9986 55.8963C51.9917 41.1357 51.9917 26.3773 51.9917 11.6167V11.5922C51.9917 11.2988 51.9871 11.0031 51.9481 10.7144C51.7233 9.04817 50.5119 7.70342 48.8807 7.55556C47.9299 7.46965 46.9692 7.4901 45.9889 7.51097ZM20.2031 28.6038C20.4061 28.8153 20.6119 29.0296 20.8214 29.2476C21.3694 28.6846 21.9117 28.1276 22.4498 27.575C23.8923 26.0936 25.3046 24.6432 26.7132 23.1904C27.2317 22.6576 27.8213 22.3596 28.5647 22.5427C29.9504 22.8853 30.4552 24.5445 29.487 25.6311C29.0587 26.1126 28.6038 26.5691 28.1494 27.0252C27.9636 27.2117 27.7779 27.3981 27.5942 27.5861C25.8551 29.3673 24.116 31.1486 22.3747 32.9275C21.3055 34.0212 20.3488 34.0141 19.2682 32.9111C19.0042 32.6422 18.7397 32.3738 18.4752 32.1054C17.6156 31.2331 16.7561 30.3608 15.9139 29.4706C14.8631 28.3582 15.3266 26.6497 16.7582 26.2953C17.4534 26.1216 18.0384 26.3587 18.5271 26.8632C19.0803 27.4343 19.631 28.0079 20.2031 28.6038ZM20.4938 43.9053C20.6001 44.0183 20.7096 44.1348 20.8237 44.2559C21.0992 43.9706 21.3648 43.6945 21.6246 43.4245C22.0723 42.9592 22.5027 42.5118 22.9368 42.0662C23.2419 41.7535 23.5466 41.4404 23.8513 41.1273C24.8521 40.0989 25.8526 39.0707 26.8692 38.0578C27.6332 37.2974 28.7184 37.3115 29.4388 38.0367C30.1615 38.7642 30.2074 39.8977 29.4663 40.6652C27.0252 43.1927 24.5703 45.7039 22.1016 48.2009C21.3491 48.9613 20.3006 48.9402 19.5343 48.1775C18.3046 46.9524 17.0909 45.7086 15.8933 44.4507C15.1476 43.6668 15.1522 42.5614 15.8543 41.8198C16.5724 41.0594 17.6691 41.05 18.4675 41.8128C18.8264 42.157 19.1708 42.516 19.5152 42.875C19.5583 42.9199 19.6014 42.9648 19.6445 43.0097C19.9205 43.2956 20.1941 43.5865 20.4938 43.9053ZM38.0147 26.2356C38.3963 26.2361 38.778 26.2366 39.1597 26.2366L39.162 26.239C39.5498 26.239 39.9375 26.2382 40.3252 26.2374C41.1007 26.2358 41.8762 26.2343 42.6516 26.239C43.8286 26.246 44.6477 27.0111 44.6569 28.0953C44.666 29.2031 43.8401 29.9822 42.6264 29.9846C40.3184 29.9893 38.0103 29.9893 35.7022 29.9846C34.4885 29.9799 33.6603 29.2054 33.6672 28.0977C33.6764 26.9923 34.5023 26.2413 35.7275 26.2366C36.4891 26.2335 37.2517 26.2345 38.0147 26.2356ZM39.1551 44.9904C38.7674 44.9904 38.3797 44.9912 37.9919 44.992C37.2165 44.9936 36.441 44.9951 35.6655 44.9904C34.4908 44.981 33.6718 44.2136 33.6672 43.127C33.6626 42.0404 34.4817 41.2495 35.6472 41.2448C37.9919 41.2354 40.339 41.2354 42.6838 41.2448C43.847 41.2495 44.666 42.0498 44.6546 43.1364C44.6454 44.1995 43.8355 44.9693 42.7044 44.9904H39.1551Z" fill="#8EFF24"/>
</svg>
