<svg width="84" height="84" viewBox="0 0 84 84" fill="none" xmlns="http://www.w3.org/2000/svg">
<rect width="84" height="84" rx="42" fill="#00E1FF" fill-opacity="0.2"/>
<path d="M48.25 39.9167H51.375V37.3125H54.5V34.1875H51.375V31.5833H48.25V39.9167ZM29.5 37.3125H46.1666V34.1875H29.5V37.3125ZM32.625 48.25H35.75V39.9167H32.625V42.5208H29.5V45.6458H32.625V48.25ZM37.8333 45.6458H54.5V42.5208H37.8333V45.6458ZM35.75 60.75C35.1597 60.75 34.6645 60.55 34.2645 60.15C33.8645 59.75 33.6652 59.2556 33.6666 58.6667V56.5833H25.3333C24.1875 56.5833 23.2062 56.175 22.3895 55.3583C21.5729 54.5417 21.1652 53.5611 21.1666 52.4167V27.4167C21.1666 26.2708 21.575 25.2896 22.3916 24.4729C23.2083 23.6562 24.1889 23.2486 25.3333 23.25H58.6666C59.8125 23.25 60.7937 23.6583 61.6104 24.475C62.427 25.2917 62.8347 26.2722 62.8333 27.4167V52.4167C62.8333 53.5625 62.425 54.5437 61.6083 55.3604C60.7916 56.1771 59.8111 56.5847 58.6666 56.5833H50.3333V58.6667C50.3333 59.2569 50.1333 59.7521 49.7333 60.1521C49.3333 60.5521 48.8389 60.7514 48.25 60.75H35.75Z" fill="#00E1FF"/>
</svg>
