<svg width="49" height="54" viewBox="0 0 49 54" fill="none" xmlns="http://www.w3.org/2000/svg">
<path fill-rule="evenodd" clip-rule="evenodd" d="M37.7085 26.7759C39.4035 24.1588 40.2391 21.2901 40.2922 18.3824L40.2902 18.3805C40.2784 16.5259 40.0975 14.876 39.545 13.3081C37.4234 7.27238 33.2235 3.53589 26.8705 2.29169C23.7559 1.68129 20.6905 2.02842 17.804 3.30382C12.1451 5.79612 8.83785 10.1391 8.01202 16.2275C7.50472 19.9737 8.37971 23.4762 10.4227 26.6706C11.7278 28.7113 13.0461 30.7445 14.3646 32.7781C14.955 33.6886 15.5454 34.5992 16.1347 35.5106C16.4553 36.0064 16.7761 36.5022 17.0968 36.9979C18.9648 39.8853 20.8325 42.7724 22.6902 45.6651C23.0992 46.3008 23.6143 46.6616 24.3969 46.5251C24.9475 46.4276 25.2503 46.0297 25.5295 45.5968C29.5879 39.3212 33.6462 33.0476 37.7085 26.7759ZM24.0941 10.7866C28.1387 10.7905 31.4578 14.0862 31.4558 18.0957C31.4538 22.1053 28.1269 25.3971 24.0843 25.3952C20.0397 25.3913 16.7206 22.0955 16.7226 18.086C16.7245 14.0765 20.0515 10.7846 24.0941 10.7866Z" fill="#8EFF24"/>
<path d="M10.928 50.2186C15.2223 51.4141 19.6169 51.8431 24.0725 51.9991L24.0744 52.0011C24.8205 51.9389 25.567 51.8815 26.3137 51.8242C27.9777 51.6963 29.6419 51.5685 31.3005 51.3868C34.4583 51.0416 37.5394 50.3376 40.479 49.111C42.1464 48.4147 43.6879 47.5235 44.9365 46.1779C46.3011 44.7056 46.5764 42.691 45.5677 40.971C44.8205 39.6976 43.684 38.8317 42.4295 38.1023C40.4239 36.9361 38.2316 36.2594 35.9979 35.6861C35.6734 35.6022 35.5378 35.6763 35.3726 35.9357C34.4544 37.3767 33.5259 38.8113 32.5975 40.2457C32.3788 40.5836 32.1601 40.9216 31.9415 41.2596C31.5665 41.8389 31.1945 42.4201 30.8225 43.0013C29.907 44.4315 28.9916 45.8617 28.0325 47.2622C26.9924 48.7794 25.4685 49.421 23.6261 49.267C21.9548 49.1285 20.7416 48.2646 19.8529 46.8819C18.351 44.5435 16.8409 42.2105 15.3306 39.8775C14.6343 38.8017 13.9379 37.7259 13.2423 36.6495L13.2344 36.6373C12.5599 35.5943 12.5533 35.584 11.333 35.9162C8.80048 36.6046 6.33872 37.4568 4.26037 39.1203C3.02753 40.1051 2.08175 41.2947 2.00507 42.9426C1.92052 44.7504 2.90365 46.0414 4.23481 47.1101C6.20501 48.6897 8.52717 49.5497 10.928 50.2186Z" fill="#8EFF24"/>
</svg>
