<svg width="85" height="84" viewBox="0 0 85 84" fill="none" xmlns="http://www.w3.org/2000/svg">
<rect x="0.5" width="84" height="84" rx="42" fill="#00E1FF" fill-opacity="0.2"/>
<path d="M43.8417 45.9292L54.6709 35.1L51.9875 32.3208L43.8417 40.4667L39.7209 36.4417L37.0375 39.125L43.8417 45.9292ZM34.8334 53.5C33.7792 53.5 32.8765 53.1243 32.1251 52.373C31.3738 51.6217 30.9988 50.7196 31 49.6667V26.6667C31 25.6125 31.3757 24.7097 32.127 23.9584C32.8784 23.2071 33.7805 22.8321 34.8334 22.8333H57.8334C58.8875 22.8333 59.7903 23.209 60.5416 23.9603C61.293 24.7117 61.668 25.6138 61.6667 26.6667V49.6667C61.6667 50.7208 61.291 51.6236 60.5397 52.3749C59.7884 53.1262 58.8863 53.5013 57.8334 53.5H34.8334ZM27.1667 61.1667C26.1125 61.1667 25.2098 60.791 24.4585 60.0397C23.7071 59.2883 23.3321 58.3862 23.3334 57.3333V30.5H27.1667V57.3333H54V61.1667H27.1667Z" fill="#00E1FF"/>
</svg>
