<svg width="84" height="84" viewBox="0 0 84 84" fill="none" xmlns="http://www.w3.org/2000/svg">
<rect width="84" height="84" rx="42" fill="#00E1FF" fill-opacity="0.2"/>
<path d="M25.1667 25C24.0616 25 23.0018 25.439 22.2204 26.2204C21.439 27.0018 21 28.0616 21 29.1667V37.5C22.1051 37.5 23.1649 37.939 23.9463 38.7204C24.7277 39.5018 25.1667 40.5616 25.1667 41.6667C25.1667 42.7717 24.7277 43.8315 23.9463 44.6129C23.1649 45.3943 22.1051 45.8333 21 45.8333V54.1667C21 55.2717 21.439 56.3315 22.2204 57.1129C23.0018 57.8943 24.0616 58.3333 25.1667 58.3333H58.5C59.6051 58.3333 60.6649 57.8943 61.4463 57.1129C62.2277 56.3315 62.6667 55.2717 62.6667 54.1667V45.8333C61.5616 45.8333 60.5018 45.3943 59.7204 44.6129C58.939 43.8315 58.5 42.7717 58.5 41.6667C58.5 40.5616 58.939 39.5018 59.7204 38.7204C60.5018 37.939 61.5616 37.5 62.6667 37.5V29.1667C62.6667 28.0616 62.2277 27.0018 61.4463 26.2204C60.6649 25.439 59.6051 25 58.5 25H25.1667ZM49.125 31.25L52.25 34.375L34.5417 52.0833L31.4167 48.9583L49.125 31.25ZM35.1875 31.3333C37.2292 31.3333 38.875 32.9792 38.875 35.0208C38.875 35.9988 38.4865 36.9367 37.795 37.6283C37.1034 38.3198 36.1655 38.7083 35.1875 38.7083C33.1458 38.7083 31.5 37.0625 31.5 35.0208C31.5 34.0428 31.8885 33.1049 32.58 32.4134C33.2716 31.7218 34.2095 31.3333 35.1875 31.3333ZM48.4792 44.625C50.5208 44.625 52.1667 46.2708 52.1667 48.3125C52.1667 49.2905 51.7782 50.2284 51.0866 50.92C50.3951 51.6115 49.4572 52 48.4792 52C46.4375 52 44.7917 50.3542 44.7917 48.3125C44.7917 47.3345 45.1802 46.3966 45.8717 45.705C46.5633 45.0135 47.5012 44.625 48.4792 44.625Z" fill="#00E1FF"/>
</svg>
