<svg width="35" height="36" viewBox="0 0 35 36" fill="none" xmlns="http://www.w3.org/2000/svg">
<path fill-rule="evenodd" clip-rule="evenodd" d="M2 18C2 26.5604 8.93959 33.5 17.5 33.5C26.0604 33.5 33 26.5604 33 18C33 9.43959 26.0604 2.5 17.5 2.5C8.93959 2.5 2 9.43959 2 18ZM17.5 0.5C7.83502 0.5 0 8.33502 0 18C0 27.665 7.83502 35.5 17.5 35.5C27.165 35.5 35 27.665 35 18C35 8.33502 27.165 0.5 17.5 0.5Z" fill="white"/>
<path fill-rule="evenodd" clip-rule="evenodd" d="M12.5798 9C10.3707 9 8.57983 10.7909 8.57983 13V23C8.57983 25.2091 10.3707 27 12.5798 27H22.5798C24.789 27 26.5798 25.2091 26.5798 23V13C26.5798 10.7909 24.789 9 22.5798 9H12.5798ZM6.57983 13C6.57983 9.68629 9.26613 7 12.5798 7H22.5798C25.8935 7 28.5798 9.68629 28.5798 13V23C28.5798 26.3137 25.8935 29 22.5798 29H12.5798C9.26613 29 6.57983 26.3137 6.57983 23V13ZM22.0798 12.5C22.0798 11.9477 22.5275 11.5 23.0798 11.5H23.0898C23.6421 11.5 24.0898 11.9477 24.0898 12.5C24.0898 13.0523 23.6421 13.5 23.0898 13.5H23.0798C22.5275 13.5 22.0798 13.0523 22.0798 12.5ZM18.0632 14.9892C17.439 14.8966 16.8015 15.0032 16.2414 15.2939C15.6813 15.5845 15.2271 16.0443 14.9434 16.608C14.6597 17.1716 14.561 17.8103 14.6612 18.4333C14.7614 19.0563 15.0556 19.6319 15.5018 20.0781C15.948 20.5242 16.5235 20.8184 17.1465 20.9186C17.7695 21.0189 18.4082 20.9201 18.9719 20.6364C19.5355 20.3527 19.9953 19.8985 20.286 19.3384C20.5766 18.7783 20.6832 18.1409 20.5907 17.5167C20.4962 16.88 20.1996 16.2905 19.7444 15.8354C19.2893 15.3803 18.6998 15.0836 18.0632 14.9892ZM15.3202 13.5186C16.2537 13.0342 17.3162 12.8566 18.3565 13.0108C19.4177 13.1682 20.4001 13.6626 21.1586 14.4212C21.9172 15.1798 22.4117 16.1622 22.569 17.2233C22.7233 18.2636 22.5456 19.3261 22.0612 20.2596C21.5768 21.1931 20.8105 21.9501 19.871 22.4229C18.9317 22.8957 17.8671 23.0603 16.8288 22.8932C15.7904 22.7262 14.8312 22.2359 14.0876 21.4923C13.3439 20.7486 12.8537 19.7894 12.6866 18.7511C12.5195 17.7128 12.6841 16.6482 13.1569 15.7088C13.6298 14.7694 14.3867 14.003 15.3202 13.5186Z" fill="white"/>
</svg>
