<svg width="35" height="36" viewBox="0 0 35 36" fill="none" xmlns="http://www.w3.org/2000/svg">
<path fill-rule="evenodd" clip-rule="evenodd" d="M2 18C2 26.5604 8.93959 33.5 17.5 33.5C26.0604 33.5 33 26.5604 33 18C33 9.43959 26.0604 2.5 17.5 2.5C8.93959 2.5 2 9.43959 2 18ZM17.5 0.5C7.83502 0.5 0 8.33502 0 18C0 27.665 7.83502 35.5 17.5 35.5C27.165 35.5 35 27.665 35 18C35 8.33502 27.165 0.5 17.5 0.5Z" fill="white"/>
<path d="M13.3888 25.5H10.289V15.535H13.3888V25.5ZM11.8074 14.1104C10.8081 14.1104 10 13.301 10 12.3047C10 11.3084 10.8091 10.5 11.8074 10.5C12.8035 10.5 13.6137 11.3094 13.6137 12.3047C13.6137 13.301 12.8035 14.1104 11.8074 14.1104ZM25 25.5H21.9023V20.654C21.9023 19.4981 21.8813 18.0115 20.2914 18.0115C18.6785 18.0115 18.4305 19.2703 18.4305 20.57V25.5H15.3327V15.535H18.3065V16.8966H18.3485C18.7625 16.1135 19.7734 15.2872 21.2813 15.2872C24.42 15.2872 25 17.3512 25 20.0346V25.5Z" fill="white"/>
</svg>
