<svg width="17" height="16" viewBox="0 0 17 16" fill="none" xmlns="http://www.w3.org/2000/svg">
<path fill-rule="evenodd" clip-rule="evenodd" d="M3.83325 4.66659C3.65644 4.66659 3.48687 4.73682 3.36185 4.86185C3.23682 4.98687 3.16659 5.15644 3.16659 5.33325V12.6666C3.16659 12.8434 3.23682 13.013 3.36185 13.138C3.48687 13.263 3.65644 13.3333 3.83325 13.3333H11.1666C11.3434 13.3333 11.513 13.263 11.638 13.138C11.763 13.013 11.8333 12.8434 11.8333 12.6666V8.66658C11.8333 8.2984 12.1317 7.99992 12.4999 7.99992C12.8681 7.99992 13.1666 8.2984 13.1666 8.66658V12.6666C13.1666 13.197 12.9559 13.7057 12.5808 14.0808C12.2057 14.4559 11.697 14.6666 11.1666 14.6666H3.83325C3.30282 14.6666 2.79411 14.4559 2.41904 14.0808C2.04397 13.7057 1.83325 13.197 1.83325 12.6666V5.33325C1.83325 4.80282 2.04397 4.29411 2.41904 3.91904C2.79411 3.54397 3.30282 3.33325 3.83325 3.33325H7.83325C8.20144 3.33325 8.49992 3.63173 8.49992 3.99992C8.49992 4.36811 8.20144 4.66659 7.83325 4.66659H3.83325Z" fill="white"/>
<path fill-rule="evenodd" clip-rule="evenodd" d="M9.83325 1.99992C9.83325 1.63173 10.1317 1.33325 10.4999 1.33325H14.4999C14.8681 1.33325 15.1666 1.63173 15.1666 1.99992V5.99992C15.1666 6.36811 14.8681 6.66659 14.4999 6.66659C14.1317 6.66659 13.8333 6.36811 13.8333 5.99992V2.66659H10.4999C10.1317 2.66659 9.83325 2.36811 9.83325 1.99992Z" fill="white"/>
<path fill-rule="evenodd" clip-rule="evenodd" d="M14.9714 1.52851C15.2318 1.78886 15.2318 2.21097 14.9714 2.47132L7.63807 9.80466C7.37772 10.065 6.95561 10.065 6.69526 9.80466C6.43491 9.54431 6.43491 9.1222 6.69526 8.86185L14.0286 1.52851C14.2889 1.26816 14.7111 1.26816 14.9714 1.52851Z" fill="white"/>
</svg>
